# xmcd
#
# Track frame offsets: 
#        150
#        16111
#        34537
#        63205
#        79798
#        94072
#        126379
#        138774
#
# Disc length: 2255 seconds
#
# Revision: 0
# Processed by: cddbd v1.5.2PL0 Copyright (c) Steve Scherf et al.
# Submitted via: ExactAudioCopy v1.0b3
#
DISCID=5908cd08
DTITLE=Tomislav Goluban - Isel budem v kleticu
DYEAR=2012
DGENRE=Blues
TTITLE0=Med bregi feat. Tamara Obrovac
TTITLE1=Serif Mirko
TTITLE2=Oj, mladosti moja feat. Kvartet Gubec
TTITLE3=0,5
TTITLE4=Zagorski cug
TTITLE5=Vinski Vrh
TTITLE6=Isel budem v kleticu feat. Joe Filisko
TTITLE7=Mr. B. feat. Bosko Petrovic
EXTD=
EXTT0=
EXTT1=
EXTT2=
EXTT3=
EXTT4=
EXTT5=
EXTT6=
EXTT7=
PLAYORDER=
